<?xml version="1.0" encoding="UTF-8" standalone="no"?><!DOCTYPE svg PUBLIC "-//W3C//DTD SVG 1.1//EN" "http://www.w3.org/Graphics/SVG/1.1/DTD/svg11.dtd"><svg width="100%" height="100%" viewBox="0 0 175 48" version="1.1" xmlns="http://www.w3.org/2000/svg" xmlns:xlink="http://www.w3.org/1999/xlink" xml:space="preserve" xmlns:serif="http://www.serif.com/" style="fill-rule:evenodd;clip-rule:evenodd;stroke-linejoin:round;stroke-miterlimit:1.41421;"><rect id="icon-signet-eosdactoolkit-175x48" x="0" y="0" width="175" height="48" style="fill:none;"/><path d="M54.711,27.621l4.195,10.039l4.211,-10.039l1.281,0l0,11.375l-0.961,0l0,-4.969l0.079,-5.062l-4.235,10.031l-0.742,0l-4.219,-9.992l0.078,5.023l0,4.969l-0.961,0l0,-11.375l1.274,0Z" style="fill:#fff;fill-rule:nonzero;"/><path d="M73.562,33.543l-5.32,0l0,4.64l6.117,0l0,0.813l-7.078,0l0,-11.375l7.039,0l0,0.82l-6.078,0l0,4.289l5.32,0l0,0.813Z" style="fill:#fff;fill-rule:nonzero;"/><path d="M77.656,27.621l4.196,10.039l4.21,-10.039l1.282,0l0,11.375l-0.961,0l0,-4.969l0.078,-5.062l-4.234,10.031l-0.743,0l-4.218,-9.992l0.078,5.023l0,4.969l-0.961,0l0,-11.375l1.273,0Z" style="fill:#fff;fill-rule:nonzero;"/><path d="M90.227,38.996l0,-11.375l3.359,0c0.578,0 1.096,0.058 1.555,0.176c0.458,0.117 0.847,0.296 1.168,0.539c0.32,0.242 0.566,0.55 0.738,0.925c0.172,0.375 0.258,0.821 0.258,1.336c0,0.292 -0.041,0.567 -0.121,0.825c-0.081,0.257 -0.2,0.493 -0.356,0.707c-0.156,0.213 -0.345,0.399 -0.566,0.558c-0.222,0.159 -0.473,0.285 -0.754,0.379c0.333,0.073 0.635,0.194 0.906,0.363c0.271,0.17 0.503,0.375 0.695,0.618c0.193,0.242 0.342,0.511 0.446,0.808c0.104,0.297 0.156,0.61 0.156,0.938c0,0.521 -0.087,0.98 -0.262,1.379c-0.174,0.398 -0.422,0.733 -0.742,1.004c-0.32,0.27 -0.704,0.475 -1.152,0.613c-0.448,0.138 -0.943,0.207 -1.485,0.207l-3.843,0Zm0.96,-5.469l0,4.656l2.883,0c0.417,0 0.791,-0.054 1.121,-0.164c0.331,-0.109 0.612,-0.265 0.844,-0.468c0.232,-0.204 0.409,-0.452 0.531,-0.747c0.123,-0.294 0.184,-0.626 0.184,-0.996c0,-0.317 -0.052,-0.616 -0.156,-0.894c-0.104,-0.279 -0.265,-0.521 -0.481,-0.727c-0.216,-0.206 -0.487,-0.367 -0.812,-0.484c-0.326,-0.117 -0.71,-0.176 -1.153,-0.176l-2.961,0Zm0,-0.805l2.625,0c0.803,-0.015 1.424,-0.204 1.864,-0.566c0.44,-0.362 0.66,-0.889 0.66,-1.582c0,-0.729 -0.228,-1.267 -0.684,-1.613c-0.455,-0.347 -1.144,-0.52 -2.066,-0.52l-2.399,0l0,4.281Z" style="fill:#fff;fill-rule:nonzero;"/><path d="M106.312,33.543l-5.32,0l0,4.64l6.117,0l0,0.813l-7.078,0l0,-11.375l7.039,0l0,0.82l-6.078,0l0,4.289l5.32,0l0,0.813Z" style="fill:#fff;fill-rule:nonzero;"/><path d="M113.383,34.261l-3.305,0l0,4.735l-0.969,0l0,-11.375l3.696,0c0.593,0 1.129,0.073 1.605,0.219c0.477,0.145 0.883,0.36 1.219,0.644c0.336,0.284 0.594,0.634 0.773,1.051c0.18,0.417 0.27,0.896 0.27,1.437c0,0.375 -0.057,0.728 -0.172,1.059c-0.115,0.331 -0.276,0.629 -0.484,0.895c-0.209,0.265 -0.457,0.494 -0.746,0.687c-0.29,0.193 -0.609,0.341 -0.958,0.445l2.844,4.836l0,0.102l-1.023,0l-2.75,-4.735Zm-3.305,-0.82l2.945,0c0.443,0 0.832,-0.068 1.168,-0.203c0.336,-0.135 0.616,-0.316 0.84,-0.543c0.224,-0.227 0.392,-0.49 0.504,-0.789c0.112,-0.3 0.168,-0.611 0.168,-0.934c0,-0.39 -0.062,-0.742 -0.187,-1.054c-0.125,-0.313 -0.312,-0.578 -0.559,-0.797c-0.247,-0.219 -0.551,-0.387 -0.91,-0.504c-0.36,-0.117 -0.774,-0.176 -1.242,-0.176l-2.727,0l0,5Z" style="fill:#fff;fill-rule:nonzero;"/><path d="M131.234,35.449c-0.062,0.578 -0.198,1.096 -0.406,1.555c-0.208,0.458 -0.488,0.846 -0.84,1.164c-0.351,0.317 -0.773,0.561 -1.265,0.73c-0.493,0.169 -1.051,0.254 -1.676,0.254c-0.646,0 -1.232,-0.122 -1.758,-0.367c-0.526,-0.245 -0.977,-0.593 -1.352,-1.043c-0.375,-0.451 -0.664,-0.991 -0.867,-1.621c-0.203,-0.63 -0.304,-1.328 -0.304,-2.094l0,-1.43c0,-0.765 0.101,-1.464 0.304,-2.097c0.203,-0.633 0.494,-1.173 0.871,-1.621c0.378,-0.448 0.835,-0.796 1.371,-1.043c0.537,-0.248 1.139,-0.371 1.805,-0.371c0.604,0 1.149,0.083 1.633,0.25c0.484,0.166 0.9,0.41 1.246,0.73c0.346,0.32 0.625,0.711 0.836,1.172c0.211,0.461 0.345,0.983 0.402,1.566l-0.968,0c-0.058,-0.458 -0.162,-0.868 -0.313,-1.23c-0.151,-0.362 -0.355,-0.666 -0.613,-0.91c-0.258,-0.245 -0.57,-0.433 -0.938,-0.563c-0.367,-0.13 -0.795,-0.195 -1.285,-0.195c-0.531,0 -1.005,0.103 -1.422,0.308c-0.416,0.206 -0.771,0.497 -1.062,0.872c-0.292,0.375 -0.515,0.826 -0.668,1.355c-0.154,0.529 -0.231,1.116 -0.231,1.762l0,1.445c0,0.625 0.073,1.202 0.219,1.731c0.146,0.528 0.359,0.984 0.641,1.367c0.281,0.383 0.627,0.681 1.039,0.894c0.411,0.214 0.883,0.321 1.414,0.321c1.005,0 1.763,-0.241 2.273,-0.723c0.511,-0.482 0.826,-1.205 0.946,-2.168l0.968,0Z" style="fill:#fff;fill-rule:nonzero;"/><path d="M134.539,38.183l5.617,0l0,0.813l-6.586,0l0,-11.375l0.969,0l0,10.562Z" style="fill:#fff;fill-rule:nonzero;"/><rect x="142.211" y="27.621" width="0.961" height="11.375" style="fill:#fff;fill-rule:nonzero;"/><path d="M152.539,33.543l-5.32,0l0,4.64l6.117,0l0,0.813l-7.078,0l0,-11.375l7.039,0l0,0.82l-6.078,0l0,4.289l5.32,0l0,0.813Z" style="fill:#fff;fill-rule:nonzero;"/><path d="M163.828,38.996l-0.961,0l-6.539,-9.735l0,9.735l-0.969,0l0,-11.375l0.969,0l6.547,9.742l0,-9.742l0.953,0l0,11.375Z" style="fill:#fff;fill-rule:nonzero;"/><path d="M174.211,28.441l-3.899,0l0,10.555l-0.96,0l0,-10.555l-3.891,0l0,-0.82l8.75,0l0,0.82Z" style="fill:#fff;fill-rule:nonzero;"/><path d="M57.615,23.191c-0.69,0 -1.325,-0.128 -1.904,-0.386c-0.579,-0.257 -1.079,-0.615 -1.499,-1.074c-0.42,-0.459 -0.747,-1.004 -0.982,-1.636c-0.234,-0.631 -0.351,-1.324 -0.351,-2.08l0,-0.42c0,-0.813 0.122,-1.551 0.366,-2.211c0.244,-0.661 0.575,-1.224 0.991,-1.69c0.417,-0.465 0.897,-0.825 1.441,-1.079c0.543,-0.254 1.118,-0.381 1.723,-0.381c0.671,0 1.267,0.121 1.787,0.361c0.521,0.241 0.959,0.577 1.314,1.006c0.355,0.43 0.623,0.941 0.806,1.533c0.182,0.593 0.273,1.241 0.273,1.944l0,0.713l-7.539,0l0,0.224c0,0.58 0.088,1.125 0.264,1.636c0.175,0.511 0.423,0.955 0.742,1.333c0.319,0.378 0.7,0.676 1.142,0.894c0.443,0.218 0.935,0.327 1.475,0.327c0.625,0 1.177,-0.114 1.655,-0.342c0.479,-0.228 0.913,-0.592 1.304,-1.094l0.732,0.557c-0.175,0.254 -0.379,0.495 -0.61,0.723c-0.231,0.227 -0.5,0.426 -0.806,0.595c-0.306,0.17 -0.651,0.303 -1.035,0.401c-0.384,0.097 -0.814,0.146 -1.289,0.146Zm-0.215,-9.961c-0.442,0 -0.852,0.085 -1.23,0.254c-0.378,0.169 -0.711,0.41 -1.001,0.723c-0.29,0.312 -0.527,0.688 -0.713,1.128c-0.185,0.439 -0.311,0.926 -0.376,1.46l6.338,0l0,-0.127c-0.013,-0.443 -0.085,-0.871 -0.215,-1.284c-0.13,-0.414 -0.321,-0.78 -0.571,-1.099c-0.251,-0.319 -0.562,-0.575 -0.933,-0.767c-0.371,-0.192 -0.804,-0.288 -1.299,-0.288Z" style="fill:#fff;fill-rule:nonzero;"/><path d="M63.211,17.556c0,-0.768 0.112,-1.477 0.337,-2.129c0.224,-0.651 0.542,-1.212 0.952,-1.684c0.41,-0.472 0.905,-0.842 1.484,-1.109c0.58,-0.266 1.224,-0.4 1.934,-0.4c0.723,0 1.375,0.134 1.958,0.4c0.583,0.267 1.079,0.637 1.489,1.109c0.41,0.472 0.726,1.033 0.947,1.684c0.222,0.652 0.333,1.361 0.333,2.129l0,0.323c0,0.768 -0.111,1.477 -0.333,2.129c-0.221,0.651 -0.537,1.212 -0.947,1.684c-0.41,0.472 -0.905,0.84 -1.484,1.104c-0.58,0.263 -1.227,0.395 -1.944,0.395c-0.716,0 -1.363,-0.132 -1.943,-0.395c-0.579,-0.264 -1.076,-0.632 -1.489,-1.104c-0.414,-0.472 -0.733,-1.033 -0.957,-1.684c-0.225,-0.652 -0.337,-1.361 -0.337,-2.129l0,-0.323Zm1.172,0.323c0,0.579 0.078,1.131 0.234,1.655c0.156,0.524 0.384,0.983 0.684,1.377c0.299,0.394 0.67,0.708 1.113,0.942c0.443,0.235 0.951,0.352 1.523,0.352c0.573,0 1.08,-0.117 1.519,-0.352c0.44,-0.234 0.809,-0.548 1.108,-0.942c0.3,-0.394 0.528,-0.853 0.684,-1.377c0.156,-0.524 0.234,-1.076 0.234,-1.655l0,-0.323c0,-0.566 -0.078,-1.111 -0.234,-1.635c-0.156,-0.524 -0.384,-0.985 -0.684,-1.382c-0.299,-0.397 -0.672,-0.715 -1.118,-0.952c-0.446,-0.238 -0.955,-0.357 -1.528,-0.357c-0.566,0 -1.069,0.119 -1.509,0.357c-0.439,0.237 -0.809,0.555 -1.108,0.952c-0.3,0.397 -0.528,0.858 -0.684,1.382c-0.156,0.524 -0.234,1.069 -0.234,1.635l0,0.323Z" style="fill:#fff;fill-rule:nonzero;"/><path d="M81.385,20.31c0,-0.215 -0.038,-0.429 -0.113,-0.644c-0.074,-0.215 -0.214,-0.419 -0.419,-0.611c-0.206,-0.192 -0.492,-0.371 -0.86,-0.537c-0.368,-0.166 -0.845,-0.311 -1.431,-0.434c-0.585,-0.124 -1.108,-0.267 -1.567,-0.43c-0.459,-0.163 -0.846,-0.36 -1.162,-0.591c-0.316,-0.231 -0.555,-0.506 -0.718,-0.825c-0.163,-0.319 -0.244,-0.693 -0.244,-1.123c0,-0.391 0.086,-0.762 0.259,-1.113c0.172,-0.352 0.42,-0.658 0.742,-0.918c0.322,-0.261 0.713,-0.467 1.172,-0.62c0.459,-0.153 0.975,-0.23 1.548,-0.23c0.612,0 1.16,0.08 1.645,0.239c0.485,0.16 0.895,0.381 1.231,0.664c0.335,0.284 0.591,0.617 0.766,1.001c0.176,0.385 0.264,0.801 0.264,1.25l-1.172,0c0,-0.273 -0.06,-0.54 -0.18,-0.8c-0.121,-0.261 -0.297,-0.49 -0.528,-0.689c-0.231,-0.198 -0.517,-0.36 -0.859,-0.483c-0.342,-0.124 -0.731,-0.186 -1.167,-0.186c-0.456,0 -0.845,0.056 -1.167,0.166c-0.322,0.111 -0.586,0.254 -0.791,0.43c-0.205,0.176 -0.355,0.373 -0.449,0.591c-0.095,0.218 -0.142,0.438 -0.142,0.659c0,0.234 0.036,0.447 0.107,0.64c0.072,0.192 0.21,0.371 0.415,0.537c0.206,0.166 0.492,0.319 0.86,0.459c0.368,0.14 0.848,0.278 1.44,0.415c0.638,0.149 1.188,0.315 1.651,0.498c0.462,0.182 0.844,0.398 1.147,0.649c0.303,0.251 0.527,0.537 0.674,0.86c0.146,0.322 0.22,0.695 0.22,1.118c0,0.436 -0.092,0.835 -0.274,1.196c-0.182,0.361 -0.443,0.671 -0.781,0.928c-0.339,0.257 -0.749,0.457 -1.231,0.6c-0.481,0.144 -1.018,0.215 -1.611,0.215c-0.67,0 -1.263,-0.086 -1.777,-0.259c-0.515,-0.172 -0.947,-0.405 -1.299,-0.698c-0.352,-0.293 -0.617,-0.63 -0.796,-1.011c-0.179,-0.381 -0.268,-0.776 -0.268,-1.186l1.171,0c0.026,0.417 0.134,0.763 0.323,1.04c0.188,0.277 0.423,0.498 0.703,0.664c0.28,0.166 0.591,0.285 0.932,0.356c0.342,0.072 0.679,0.108 1.011,0.108c0.443,0 0.833,-0.052 1.172,-0.156c0.339,-0.105 0.623,-0.245 0.855,-0.42c0.231,-0.176 0.405,-0.378 0.522,-0.606c0.117,-0.228 0.176,-0.465 0.176,-0.713Z" style="fill:#fff;fill-rule:nonzero;"/><path d="M84.93,22.996l0,-14.219l4.375,0c0.957,0 1.834,0.164 2.632,0.493c0.797,0.329 1.481,0.791 2.05,1.387c0.57,0.596 1.014,1.31 1.333,2.144c0.319,0.833 0.479,1.757 0.479,2.773l0,0.644c0,1.016 -0.158,1.939 -0.474,2.769c-0.316,0.83 -0.762,1.543 -1.338,2.139c-0.576,0.595 -1.264,1.056 -2.065,1.382c-0.801,0.325 -1.683,0.488 -2.647,0.488l-4.345,0Zm2.929,-11.846l0,9.492l1.416,0c1.159,0 2.041,-0.382 2.647,-1.147c0.605,-0.765 0.908,-1.857 0.908,-3.277l0,-0.664c0,-1.445 -0.299,-2.54 -0.898,-3.286c-0.599,-0.745 -1.475,-1.118 -2.627,-1.118l-1.446,0Z" style="fill:#fff;fill-rule:nonzero;"/><path d="M105.75,20.066l-5.137,0l-0.976,2.93l-3.116,0l5.293,-14.219l2.715,0l5.323,14.219l-3.116,0l-0.986,-2.93Zm-4.346,-2.373l3.555,0l-1.787,-5.322l-1.768,5.322Z" style="fill:#fff;fill-rule:nonzero;"/><path d="M122.137,18.259c-0.052,0.723 -0.215,1.387 -0.489,1.993c-0.273,0.605 -0.651,1.124 -1.132,1.557c-0.482,0.433 -1.066,0.772 -1.753,1.016c-0.687,0.244 -1.47,0.366 -2.349,0.366c-0.911,0 -1.73,-0.158 -2.456,-0.474c-0.726,-0.315 -1.341,-0.769 -1.846,-1.362c-0.504,-0.592 -0.892,-1.31 -1.162,-2.153c-0.27,-0.843 -0.405,-1.789 -0.405,-2.837l0,-0.938c0,-1.048 0.14,-1.995 0.42,-2.841c0.28,-0.847 0.675,-1.566 1.186,-2.159c0.511,-0.592 1.132,-1.048 1.861,-1.367c0.729,-0.319 1.543,-0.478 2.441,-0.478c0.886,0 1.668,0.125 2.349,0.376c0.68,0.25 1.258,0.599 1.733,1.045c0.475,0.446 0.847,0.976 1.113,1.591c0.267,0.616 0.437,1.285 0.508,2.007l-2.929,0c-0.033,-0.423 -0.106,-0.797 -0.22,-1.123c-0.114,-0.325 -0.278,-0.599 -0.493,-0.82c-0.215,-0.221 -0.492,-0.389 -0.83,-0.503c-0.339,-0.114 -0.749,-0.171 -1.231,-0.171c-0.989,0 -1.727,0.36 -2.212,1.079c-0.485,0.72 -0.727,1.835 -0.727,3.345l0,0.957c0,0.736 0.053,1.38 0.161,1.934c0.107,0.553 0.276,1.015 0.508,1.386c0.231,0.371 0.53,0.65 0.898,0.835c0.368,0.186 0.812,0.279 1.333,0.279c0.462,0 0.861,-0.053 1.196,-0.157c0.336,-0.104 0.616,-0.262 0.84,-0.473c0.225,-0.212 0.399,-0.477 0.523,-0.796c0.123,-0.319 0.201,-0.69 0.234,-1.114l2.93,0Z" style="fill:#fff;fill-rule:nonzero;"/><path id="Shape_2" d="M16.55,6.217l0.563,10.099l4.741,3.282l1.206,-5.639l-6.51,-7.742Z" style="fill:#fff;"/><path id="Shape_2_copy" d="M24.064,13.908l1.024,5.669l4.842,-3.141l0.885,-10.072l-6.751,7.544Z" style="fill:#fff;"/><path id="Shape_2_copy_2" d="M30.683,17.097l-3.279,4.727l5.638,1.203l7.738,-6.487l-10.097,0.557Z" style="fill:#fff;"/><path id="Shape_2_copy_3" d="M33.096,24.063l-5.668,1.026l3.139,4.844l10.072,0.884l-7.543,-6.754Z" style="fill:#fff;"/><path id="Shape_2_copy_4" d="M29.905,30.686l-4.726,-3.279l-1.205,5.638l6.488,7.738l-0.557,-10.097Z" style="fill:#fff;"/><path id="Shape_2_copy_5" d="M21.95,27.465l-4.846,3.139l-0.884,10.073l6.755,-7.543l-1.025,-5.669Z" style="fill:#fff;"/><path id="Shape_2_copy_6" d="M13.956,23.976l-7.736,6.487l10.096,-0.555l3.279,-4.727l-5.639,-1.205Z" style="fill:#fff;"/><path id="Shape_2_copy_7" d="M16.434,17.072l-10.073,-0.884l7.543,6.756l5.668,-1.026l-3.138,-4.846Z" style="fill:#fff;"/><path id="Shape_2_copy_15" d="M6.168,16.499l-5.668,1.025l3.139,4.846l10.071,0.885l-7.542,-6.756Z" style="fill:#fff;"/><path id="Shape_2_copy_8" d="M16.192,6.297l-4.732,-3.284l-1.204,5.643l6.497,7.749l-0.561,-10.108Z" style="fill:#fff;"/><path id="Shape_2_copy_9" d="M29.475,0.5l-4.842,3.14l-0.885,10.073l6.75,-7.544l-1.023,-5.669Z" style="fill:#fff;"/><path id="Shape_2_copy_10" d="M38.341,10.265l-7.738,6.487l10.098,-0.556l3.279,-4.726l-5.639,-1.205Z" style="fill:#fff;"/><path id="Shape_2_copy_11" d="M43.361,24.634l-10.072,-0.885l7.542,6.756l5.669,-1.026l-3.139,-4.845Z" style="fill:#fff;"/><path id="Shape_2_copy_12" d="M30.249,30.605l0.557,10.097l4.727,3.279l1.204,-5.638l-6.488,-7.738Z" style="fill:#fff;"/><path id="Shape_2_copy_13" d="M16.497,40.834l1.025,5.669l4.846,-3.139l0.884,-10.073l-6.755,7.543Z" style="fill:#fff;"/><path id="Shape_2_copy_14" d="M6.299,30.808l-3.279,4.727l5.639,1.206l7.738,-6.488l-10.098,0.555Z" style="fill:#fff;"/><path id="Shape_2_copy_16" d="M8.907,36.896l6.997,3.698l0.849,-10.195l-7.846,6.497Z" style="fill:#fff;"/><path id="Shape_2_copy_17" d="M3.71,22.654l2.333,7.563l7.81,-6.609l-10.143,-0.954Z" style="fill:#fff;"/><path id="Shape_2_copy_18" d="M10.106,8.907l-3.686,6.986l10.187,0.861l-6.501,-7.847Z" style="fill:#fff;"/><path id="Shape_2_copy_19" d="M16.794,6.038l6.6,7.818l0.949,-10.149l-7.549,2.331Z" style="fill:#fff;"/><path id="Shape_2_copy_20" d="M31.111,6.421l-0.861,10.191l7.845,-6.504l-6.984,-3.687Z" style="fill:#fff;"/><path id="Shape_2_copy_21" d="M40.965,16.797l-7.817,6.6l10.148,0.948l-2.331,-7.548Z" style="fill:#fff;"/><path id="Shape_2_copy_22" d="M30.39,30.254l6.503,7.844l3.69,-6.984l-10.193,-0.86Z" style="fill:#fff;"/><path id="Shape_2_copy_23" d="M23.606,33.15l-0.948,10.147l7.549,-2.33l-6.601,-7.817Z" style="fill:#fff;"/><g id="FAB-Normal" serif:id="FAB Normal"></g><g id="FAB-Normal1" serif:id="FAB Normal"><g id="Add"></g></g><g id="FAB-Normal2" serif:id="FAB Normal"><g id="Add1" serif:id="Add"></g></g><g id="FAB-Normal3" serif:id="FAB Normal"><g id="Add2" serif:id="Add"></g></g><g id="Check"></g></svg>