<?xml version="1.0" encoding="UTF-8" standalone="no"?>
<!DOCTYPE svg PUBLIC "-//W3C//DTD SVG 1.1//EN" "http://www.w3.org/Graphics/SVG/1.1/DTD/svg11.dtd">
<svg width="100%" height="100%" viewBox="0 0 160 160" version="1.1" xmlns="http://www.w3.org/2000/svg" xmlns:xlink="http://www.w3.org/1999/xlink" xml:space="preserve" xmlns:serif="http://www.serif.com/" style="fill-rule:evenodd;clip-rule:evenodd;stroke-linejoin:round;stroke-miterlimit:1.41421;"><rect id="ArtBoard1" x="0" y="0" width="160" height="160" style="fill:none;"/><path id="Shape_2_copy_9" d="M97.92,9l-15.025,9.745l-2.748,31.261l20.949,-23.414l-3.176,-17.592Z" style="fill:#fff;"/><path id="Shape_2" d="M57.81,26.743l1.745,31.34l14.715,10.184l3.741,-17.499l-20.201,-24.025Z" style="fill:#fff;"/><path id="Shape_2_copy" d="M81.128,50.61l3.179,17.592l15.024,-9.745l2.748,-31.26l-20.951,23.413Z" style="fill:#fff;"/><path id="Shape_2_copy_2" d="M101.669,60.508l-10.177,14.667l17.499,3.736l24.015,-20.132l-31.337,1.729Z" style="fill:#fff;"/><path id="Shape_2_copy_3" d="M109.158,82.126l-17.59,3.182l9.741,15.034l31.258,2.744l-23.409,-20.96Z" style="fill:#fff;"/><path id="Shape_2_copy_4" d="M99.256,102.679l-14.667,-10.175l-3.74,17.497l20.135,24.012l-1.728,-31.334Z" style="fill:#fff;"/><path id="Shape_2_copy_5" d="M74.566,92.683l-15.036,9.741l-2.743,31.26l20.961,-23.409l-3.182,-17.592Z" style="fill:#fff;"/><path id="Shape_2_copy_6" d="M49.761,81.854l-24.01,20.134l31.334,-1.723l10.173,-14.67l-17.497,-3.741Z" style="fill:#fff;"/><path id="Shape_2_copy_7" d="M57.448,60.429l-31.259,-2.742l23.408,20.966l17.592,-3.184l-9.741,-15.04Z" style="fill:#fff;"/><path id="Shape_2_copy_15" d="M25.59,58.65l-17.59,3.183l9.742,15.039l31.255,2.746l-23.407,-20.968Z" style="fill:#fff;"/><path id="Shape_2_copy_8" d="M56.698,26.991l-14.686,-10.194l-3.734,17.516l20.163,24.048l-1.743,-31.37Z" style="fill:#fff;"/><path id="Shape_2_copy_10" d="M125.437,39.305l-24.016,20.132l31.339,-1.725l10.177,-14.668l-17.5,-3.739Z" style="fill:#fff;"/><path id="Shape_2_copy_11" d="M141.013,83.898l-31.256,-2.746l23.407,20.965l17.592,-3.182l-9.743,-15.037Z" style="fill:#fff;"/><path id="Shape_2_copy_12" d="M100.323,102.429l1.727,31.335l14.671,10.174l3.737,-17.496l-20.135,-24.013Z" style="fill:#fff;"/><path id="Shape_2_copy_13" d="M57.644,134.174l3.183,17.592l15.037,-9.742l2.745,-31.262l-20.965,23.412Z" style="fill:#fff;"/><path id="Shape_2_copy_14" d="M25.996,103.058l-10.175,14.671l17.501,3.741l24.012,-20.135l-31.338,1.723Z" style="fill:#fff;"/><path id="Shape_2_copy_16" d="M34.09,121.951l21.713,11.478l2.637,-31.64l-24.35,20.162Z" style="fill:#fff;"/><path id="Shape_2_copy_17" d="M17.963,77.754l7.238,23.469l24.237,-20.509l-31.475,-2.96Z" style="fill:#fff;"/><path id="Shape_2_copy_18" d="M37.812,35.091l-11.441,21.68l31.615,2.672l-20.174,-24.352Z" style="fill:#fff;"/><path id="Shape_2_copy_19" d="M58.567,26.186l20.483,24.261l2.944,-31.496l-23.427,7.235Z" style="fill:#fff;"/><path id="Shape_2_copy_20" d="M102.998,27.374l-2.671,31.627l24.345,-20.182l-21.674,-11.445Z" style="fill:#fff;"/><path id="Shape_2_copy_21" d="M133.58,59.576l-24.261,20.482l31.494,2.941l-7.233,-23.423Z" style="fill:#fff;"/><path id="Shape_2_copy_22" d="M100.761,101.339l20.182,24.342l11.451,-21.675l-31.633,-2.667Z" style="fill:#fff;"/><path id="Shape_2_copy_23" d="M79.706,110.325l-2.941,31.492l23.428,-7.231l-20.487,-24.261Z" style="fill:#fff;"/></svg>