<?xml version="1.0" encoding="UTF-8" standalone="no"?><!DOCTYPE svg PUBLIC "-//W3C//DTD SVG 1.1//EN" "http://www.w3.org/Graphics/SVG/1.1/DTD/svg11.dtd"><svg width="100%" height="100%" viewBox="0 0 48 48" version="1.1" xmlns="http://www.w3.org/2000/svg" xmlns:xlink="http://www.w3.org/1999/xlink" xml:space="preserve" xmlns:serif="http://www.serif.com/" style="fill-rule:evenodd;clip-rule:evenodd;stroke-linejoin:round;stroke-miterlimit:1.41421;"><path id="Shape_2_copy_9" d="M30.235,0l-5.052,3.277l-0.925,10.511l7.045,-7.873l-1.068,-5.915Z" style="fill:#fff;fill-opacity:0.0313726;"/><path id="Shape_2" d="M16.748,5.966l0.587,10.538l4.947,3.424l1.258,-5.884l-6.792,-8.078Z" style="fill:#fff;fill-opacity:0.0313726;"/><path id="Shape_2_copy" d="M24.589,13.991l1.068,5.915l5.052,-3.277l0.924,-10.51l-7.044,7.872Z" style="fill:#fff;fill-opacity:0.0313726;"/><path id="Shape_2_copy_2" d="M31.495,17.319l-3.422,4.932l5.884,1.256l8.075,-6.769l-10.537,0.581Z" style="fill:#fff;fill-opacity:0.0313726;"/><path id="Shape_2_copy_3" d="M34.013,24.588l-5.914,1.07l3.275,5.055l10.51,0.922l-7.871,-7.047Z" style="fill:#fff;fill-opacity:0.0313726;"/><path id="Shape_2_copy_4" d="M30.684,31.499l-4.932,-3.422l-1.257,5.883l6.77,8.074l-0.581,-10.535Z" style="fill:#fff;fill-opacity:0.0313726;"/><path id="Shape_2_copy_5" d="M22.382,28.137l-5.056,3.276l-0.922,10.51l7.048,-7.871l-1.07,-5.915Z" style="fill:#fff;fill-opacity:0.0313726;"/><path id="Shape_2_copy_6" d="M14.042,24.496l-8.073,6.77l10.535,-0.579l3.421,-4.933l-5.883,-1.258Z" style="fill:#fff;fill-opacity:0.0313726;"/><path id="Shape_2_copy_7" d="M16.626,17.293l-10.51,-0.923l7.87,7.05l5.916,-1.071l-3.276,-5.056Z" style="fill:#fff;fill-opacity:0.0313726;"/><path id="Shape_2_copy_15" d="M5.914,16.694l-5.914,1.07l3.275,5.057l10.51,0.923l-7.871,-7.05Z" style="fill:#fff;fill-opacity:0.0313726;"/><path id="Shape_2_copy_8" d="M16.374,6.049l-4.938,-3.427l-1.255,5.889l6.779,8.086l-0.586,-10.548Z" style="fill:#fff;fill-opacity:0.0313726;"/><path id="Shape_2_copy_10" d="M39.487,10.19l-8.075,6.769l10.537,-0.58l3.422,-4.932l-5.884,-1.257Z" style="fill:#fff;fill-opacity:0.0313726;"/><path id="Shape_2_copy_11" d="M44.724,25.183l-10.509,-0.923l7.87,7.049l5.915,-1.07l-3.276,-5.056Z" style="fill:#fff;fill-opacity:0.0313726;"/><path id="Shape_2_copy_12" d="M31.043,31.414l0.58,10.536l4.933,3.421l1.257,-5.883l-6.77,-8.074Z" style="fill:#fff;fill-opacity:0.0313726;"/><path id="Shape_2_copy_13" d="M16.692,42.088l1.07,5.915l5.056,-3.275l0.924,-10.512l-7.05,7.872Z" style="fill:#fff;fill-opacity:0.0313726;"/><path id="Shape_2_copy_14" d="M6.051,31.626l-3.421,4.933l5.884,1.258l8.074,-6.77l-10.537,0.579Z" style="fill:#fff;fill-opacity:0.0313726;"/><path id="Shape_2_copy_16" d="M8.772,37.979l7.301,3.859l0.887,-10.639l-8.188,6.78Z" style="fill:#fff;fill-opacity:0.0313726;"/><path id="Shape_2_copy_17" d="M3.35,23.118l2.434,7.891l8.149,-6.896l-10.583,-0.995Z" style="fill:#fff;fill-opacity:0.0313726;"/><path id="Shape_2_copy_18" d="M10.024,8.773l-3.847,7.289l10.63,0.899l-6.783,-8.188Z" style="fill:#fff;fill-opacity:0.0313726;"/><path id="Shape_2_copy_19" d="M17.003,5.778l6.887,8.158l0.989,-10.59l-7.876,2.432Z" style="fill:#fff;fill-opacity:0.0313726;"/><path id="Shape_2_copy_20" d="M31.942,6.178l-0.898,10.634l8.186,-6.786l-7.288,-3.848Z" style="fill:#fff;fill-opacity:0.0313726;"/><path id="Shape_2_copy_21" d="M42.225,17.006l-8.158,6.886l10.59,0.989l-2.432,-7.875Z" style="fill:#fff;fill-opacity:0.0313726;"/><path id="Shape_2_copy_22" d="M31.19,31.048l6.786,8.185l3.85,-7.288l-10.636,-0.897Z" style="fill:#fff;fill-opacity:0.0313726;"/><path id="Shape_2_copy_23" d="M24.11,34.069l-0.988,10.589l7.877,-2.431l-6.889,-8.158Z" style="fill:#fff;fill-opacity:0.0313726;"/></svg>