<?xml version="1.0" encoding="UTF-8" standalone="no"?><!DOCTYPE svg PUBLIC "-//W3C//DTD SVG 1.1//EN" "http://www.w3.org/Graphics/SVG/1.1/DTD/svg11.dtd"><svg width="100%" height="100%" viewBox="0 0 175 48" version="1.1" xmlns="http://www.w3.org/2000/svg" xmlns:xlink="http://www.w3.org/1999/xlink" xml:space="preserve" xmlns:serif="http://www.serif.com/" style="fill-rule:evenodd;clip-rule:evenodd;stroke-linejoin:round;stroke-miterlimit:1.41421;"><rect id="icon-signet-eosdactoolkit-175x48" x="0" y="0" width="175" height="48" style="fill:none;"/><g transform="matrix(1,0,0,1,-56,7.99582)"><text x="108px" y="15px" style="font-family:'Roboto-Light', 'Roboto';font-weight:300;font-size:20px;">eos</text><text x="139.66px" y="15px" style="font-family:'Roboto-Bold', 'Roboto';font-weight:700;font-size:20px;">D<tspan x="152.453px 165.705px " y="15px 15px ">AC</tspan></text></g><text x="52px" y="38.996px" style="font-family:'Roboto-Light', 'Roboto';font-weight:300;font-size:16px;">MEMBER CLIEN<tspan x="165.055px " y="38.996px ">T</tspan></text><path id="Shape_2" d="M16.55,6.217l0.563,10.099l4.741,3.282l1.206,-5.639l-6.51,-7.742Z" style="fill:#1e2128;"/><path id="Shape_2_copy" d="M24.064,13.908l1.024,5.669l4.842,-3.141l0.885,-10.072l-6.751,7.544Z" style="fill:#1e2128;"/><path id="Shape_2_copy_2" d="M30.683,17.097l-3.279,4.727l5.638,1.203l7.738,-6.487l-10.097,0.557Z" style="fill:#1e2128;"/><path id="Shape_2_copy_3" d="M33.096,24.063l-5.668,1.026l3.139,4.844l10.072,0.884l-7.543,-6.754Z" style="fill:#1e2128;"/><path id="Shape_2_copy_4" d="M29.905,30.686l-4.726,-3.279l-1.205,5.638l6.488,7.738l-0.557,-10.097Z" style="fill:#1e2128;"/><path id="Shape_2_copy_5" d="M21.95,27.465l-4.846,3.139l-0.884,10.073l6.755,-7.543l-1.025,-5.669Z" style="fill:#1e2128;"/><path id="Shape_2_copy_6" d="M13.956,23.976l-7.736,6.487l10.096,-0.555l3.279,-4.727l-5.639,-1.205Z" style="fill:#1e2128;"/><path id="Shape_2_copy_7" d="M16.434,17.072l-10.073,-0.884l7.543,6.756l5.668,-1.026l-3.138,-4.846Z" style="fill:#1e2128;"/><path id="Shape_2_copy_15" d="M6.168,16.499l-5.668,1.025l3.139,4.846l10.071,0.885l-7.542,-6.756Z" style="fill:#1e2128;"/><path id="Shape_2_copy_8" d="M16.192,6.297l-4.732,-3.284l-1.204,5.643l6.497,7.749l-0.561,-10.108Z" style="fill:#1e2128;"/><path id="Shape_2_copy_9" d="M29.475,0.5l-4.842,3.14l-0.885,10.073l6.75,-7.544l-1.023,-5.669Z" style="fill:#1e2128;"/><path id="Shape_2_copy_10" d="M38.341,10.265l-7.738,6.487l10.098,-0.556l3.279,-4.726l-5.639,-1.205Z" style="fill:#1e2128;"/><path id="Shape_2_copy_11" d="M43.361,24.634l-10.072,-0.885l7.542,6.756l5.669,-1.026l-3.139,-4.845Z" style="fill:#1e2128;"/><path id="Shape_2_copy_12" d="M30.249,30.605l0.557,10.097l4.727,3.279l1.204,-5.638l-6.488,-7.738Z" style="fill:#1e2128;"/><path id="Shape_2_copy_13" d="M16.497,40.834l1.025,5.669l4.846,-3.139l0.884,-10.073l-6.755,7.543Z" style="fill:#1e2128;"/><path id="Shape_2_copy_14" d="M6.299,30.808l-3.279,4.727l5.639,1.206l7.738,-6.488l-10.098,0.555Z" style="fill:#1e2128;"/><path id="Shape_2_copy_16" d="M8.907,36.896l6.997,3.698l0.849,-10.195l-7.846,6.497Z" style="fill:#1e2128;"/><path id="Shape_2_copy_17" d="M3.71,22.654l2.333,7.563l7.81,-6.609l-10.143,-0.954Z" style="fill:#1e2128;"/><path id="Shape_2_copy_18" d="M10.106,8.907l-3.686,6.986l10.187,0.861l-6.501,-7.847Z" style="fill:#1e2128;"/><path id="Shape_2_copy_19" d="M16.794,6.038l6.6,7.818l0.949,-10.149l-7.549,2.331Z" style="fill:#1e2128;"/><path id="Shape_2_copy_20" d="M31.111,6.421l-0.861,10.191l7.845,-6.504l-6.984,-3.687Z" style="fill:#1e2128;"/><path id="Shape_2_copy_21" d="M40.965,16.797l-7.817,6.6l10.148,0.948l-2.331,-7.548Z" style="fill:#1e2128;"/><path id="Shape_2_copy_22" d="M30.39,30.254l6.503,7.844l3.69,-6.984l-10.193,-0.86Z" style="fill:#1e2128;"/><path id="Shape_2_copy_23" d="M23.606,33.15l-0.948,10.147l7.549,-2.33l-6.601,-7.817Z" style="fill:#1e2128;"/></svg>